# xmcd CD database file
#
# Track frame offsets:
#	150
#	21135
#	42300
#	63287
#
# Disc length: 1124 seconds
#
# Revision: 0
# Processed by: cddbd v1.5.1PL0 Copyright (c) Steve Scherf et al.
# Submitted via: CDex 1.51
#
DISCID=2b046204
DTITLE=夏川 りみ - 愛よ愛よ
DYEAR=2004
DGENRE=JPop
TTITLE0=愛よ愛よ
TTITLE1=微笑みにして
TTITLE2=愛よ愛よ (Instrumental Version)
TTITLE3=微笑みにして (Instrumental Version)
EXTD=YEAR: 2004
EXTT0=
EXTT1=
EXTT2=
EXTT3=
PLAYORDER=
